<?xml version="1.0" encoding="UTF-8" standalone="no"?><!DOCTYPE svg PUBLIC "-//W3C//DTD SVG 1.1//EN" "http://www.w3.org/Graphics/SVG/1.1/DTD/svg11.dtd"><svg width="100%" height="100%" viewBox="0 0 125 125" version="1.1" xmlns="http://www.w3.org/2000/svg" xmlns:xlink="http://www.w3.org/1999/xlink" xml:space="preserve" xmlns:serif="http://www.serif.com/" style="fill-rule:evenodd;clip-rule:evenodd;stroke-linejoin:round;stroke-miterlimit:2;"><path d="M125,17.5l0,90c0,9.659 -7.841,17.5 -17.5,17.5l-90,-0c-9.659,-0 -17.5,-7.841 -17.5,-17.5l0,-90c0,-9.659 7.841,-17.5 17.5,-17.5l90,0c9.659,0 17.5,7.841 17.5,17.5Z" style="fill:url(#_Linear1);"/><g><rect x="32.122" y="32.122" width="10.126" height="10.126" style="fill:#fff;fill-rule:nonzero;"/><path d="M16.933,29.591c0,-6.944 5.714,-12.658 12.658,-12.658l15.189,0c6.943,0 12.657,5.714 12.657,12.658l0,15.189c0,6.943 -5.714,12.657 -12.657,12.657l-15.189,0c-6.944,0 -12.658,-5.714 -12.658,-12.657l0,-15.189Zm12.658,-2.532c-1.389,0 -2.532,1.143 -2.532,2.532l0,15.189c0,1.388 1.143,2.531 2.532,2.531l15.189,0c1.388,0 2.531,-1.143 2.531,-2.531l0,-15.189c0,-1.389 -1.143,-2.532 -2.531,-2.532l-15.189,0Zm2.531,55.693l10.126,-0l0,10.126l-10.126,-0l0,-10.126Z" style="fill:#fff;fill-rule:nonzero;"/><path d="M16.933,80.22c0,-6.943 5.714,-12.657 12.658,-12.657l15.189,-0c6.943,-0 12.657,5.714 12.657,12.657l0,15.189c0,6.944 -5.714,12.658 -12.657,12.658l-15.189,-0c-6.944,-0 -12.658,-5.714 -12.658,-12.658l0,-15.189Zm12.658,-2.531c-1.389,-0 -2.532,1.143 -2.532,2.531l0,15.189c0,1.389 1.143,2.532 2.532,2.532l15.189,-0c1.388,-0 2.531,-1.143 2.531,-2.532l0,-15.189c0,-1.388 -1.143,-2.531 -2.531,-2.531l-15.189,-0Zm63.287,-45.567l-10.126,0l-0,10.126l10.126,0l-0,-10.126Z" style="fill:#fff;fill-rule:nonzero;"/><path d="M80.22,16.933c-6.943,0 -12.657,5.714 -12.657,12.658l-0,15.189c-0,6.943 5.714,12.657 12.657,12.657l15.189,0c6.944,0 12.658,-5.714 12.658,-12.657l-0,-15.189c-0,-6.944 -5.714,-12.658 -12.658,-12.658l-15.189,0Zm-2.531,12.658c-0,-1.389 1.143,-2.532 2.531,-2.532l15.189,0c1.389,0 2.532,1.143 2.532,2.532l-0,15.189c-0,1.388 -1.143,2.531 -2.532,2.531l-15.189,0c-1.388,0 -2.531,-1.143 -2.531,-2.531l-0,-15.189Zm-10.126,37.972l13.923,-0l0,13.923l-13.923,0l-0,-13.923Zm26.581,13.923l-12.658,0l0,12.658l-13.923,-0l-0,13.923l13.923,-0l0,-13.923l12.658,-0l-0,13.923l13.923,-0l-0,-13.923l-13.923,-0l-0,-12.658Zm-0,0l-0,-13.923l13.923,-0l-0,13.923l-13.923,0Z" style="fill:#fff;fill-rule:nonzero;"/></g><defs><linearGradient id="_Linear1" x1="0" y1="0" x2="1" y2="0" gradientUnits="userSpaceOnUse" gradientTransform="matrix(62.5,138.885,-138.885,62.5,20.8333,-6.94271)"><stop offset="0" style="stop-color:#1ec8b0;stop-opacity:1"/><stop offset="1" style="stop-color:#2764e7;stop-opacity:1"/></linearGradient></defs></svg>